<svg height="512" viewBox="0 0 64 64" width="512" xmlns="http://www.w3.org/2000/svg"><g id="Distributed-3" data-name="Distributed"><path d="m45 42v16l-13 4v-16z" fill="#57a4ff"/><circle cx="11" cy="8" fill="#57a4ff" r="2"/><circle cx="11" cy="16" fill="#57a4ff" r="2"/><circle cx="32" cy="8" fill="#57a4ff" r="2"/><circle cx="32" cy="16" fill="#57a4ff" r="2"/><circle cx="53" cy="8" fill="#57a4ff" r="2"/><g fill="#004fac"><path d="m11 5a3 3 0 1 0 3 3 3 3 0 0 0 -3-3zm0 4a1 1 0 1 1 1-1 1 1 0 0 1 -1 1z"/><path d="m11 13a3 3 0 1 0 3 3 3 3 0 0 0 -3-3zm0 4a1 1 0 1 1 1-1 1 1 0 0 1 -1 1z"/><path d="m32 5a3 3 0 1 0 3 3 3 3 0 0 0 -3-3zm0 4a1 1 0 1 1 1-1 1 1 0 0 1 -1 1z"/><path d="m32 13a3 3 0 1 0 3 3 3 3 0 0 0 -3-3zm0 4a1 1 0 1 1 1-1 1 1 0 0 1 -1 1z"/><path d="m59 1h-12a1 1 0 0 0 -1 1v20a1 1 0 0 0 1 1h5v8h-11a1 1 0 0 0 -1 1v7.005l-7.059-2.715a.966.966 0 0 0 .059-.29v-13h5a1 1 0 0 0 1-1v-20a1 1 0 0 0 -1-1h-12a1 1 0 0 0 -1 1v20a1 1 0 0 0 1 1h5v13a.966.966 0 0 0 .059.29l-7.059 2.715v-7.005a1 1 0 0 0 -1-1h-11v-8h5a1 1 0 0 0 1-1v-20a1 1 0 0 0 -1-1h-12a1 1 0 0 0 -1 1v20a1 1 0 0 0 1 1h5v9a1 1 0 0 0 1 1h11v6.775l-3.359 1.291a1.762 1.762 0 0 0 -.235.13 1 1 0 0 0 -.406.804v16a1 1 0 0 0 .706.956l12.982 3.994.016.005a1 1 0 0 0 .588 0l.016-.005 12.982-3.994a1 1 0 0 0 .71-.956v-16a1 1 0 0 0 -.406-.8 1.762 1.762 0 0 0 -.235-.13l-3.359-1.295v-6.775h11a1 1 0 0 0 1-1v-9h5a1 1 0 0 0 1-1v-20a1 1 0 0 0 -1-1zm-32 20v-18h10v18zm-21 0v-18h10v18zm25 39.646-11-3.385v-13.907l11 3.385zm1-15.692-9.941-3.054 9.941-3.829 9.941 3.829zm12 12.307-11 3.385v-13.907l11-3.385zm14-36.261h-10v-18h10z"/><path d="m53 11a3 3 0 1 0 -3-3 3 3 0 0 0 3 3zm0-4a1 1 0 1 1 -1 1 1 1 0 0 1 1-1z"/><path d="m50 19h2a1 1 0 0 0 0-2h-2a1 1 0 0 0 0 2z"/><path d="m55 17a1 1 0 0 0 0 2h1a1 1 0 0 0 0-2z"/></g></g></svg>